<svg width="22" height="17" viewBox="0 0 22 17" fill="none" xmlns="http://www.w3.org/2000/svg">
<g clip-path="url(#clip0_727_1254)">
<path d="M21.6654 8.49561C21.6654 8.25865 21.5659 8.03924 21.367 7.85493L13.5997 0.307176C13.3646 0.0789882 13.1475 0 12.9124 0C12.4242 0 12.0444 0.351059 12.0444 0.824988C12.0444 1.05318 12.1257 1.27259 12.2885 1.43057L15.4534 4.54621L19.6761 8.32887L19.8841 7.82861L16.3304 7.6443H0.868063C0.361693 7.6443 0 7.99536 0 8.49561C0 8.9871 0.361693 9.34694 0.868063 9.34694H16.3304L19.8841 9.15381L19.6761 8.66237L15.4534 12.4451L12.2885 15.5519C12.1348 15.7099 12.0444 15.9381 12.0444 16.1663C12.0444 16.6402 12.4242 16.9912 12.9124 16.9912C13.1475 16.9912 13.3555 16.9035 13.5545 16.728L21.367 9.12748C21.5659 8.952 21.6654 8.73259 21.6654 8.49561Z" fill="black" fill-opacity="0.85"/>
</g>
<defs>
<clipPath id="clip0_727_1254">
<rect width="22" height="17" fill="white"/>
</clipPath>
</defs>
</svg>
