<svg width="237" height="13" viewBox="0 0 237 13" fill="none" xmlns="http://www.w3.org/2000/svg">
<path fill-rule="evenodd" clip-rule="evenodd" d="M100.538 1.89557C89.4168 2.2848 78.4262 2.7634 67.7085 3.28662C52.5364 4.0268 37.3702 4.7925 22.2954 6.00486C17.5501 6.38771 12.7313 6.63017 8.01578 7.10873C5.05566 7.40863 1.13061 7.83608 0.615493 7.92541C0.346067 7.97646 0.228526 8.0531 0.190545 8.07862C-0.0765069 8.25729 -0.0277798 8.4295 0.122956 8.5635C0.183488 8.62092 0.336555 8.76136 0.761464 8.7805C29.1782 10.0886 58.2358 7.53624 86.687 7.26825C136.026 6.80883 186.861 8.63375 235.809 12.6154C236.236 12.6473 236.651 12.4877 236.711 12.2516C236.782 12.0219 236.474 11.7986 236.046 11.7667C187.015 7.77867 136.098 5.94736 86.6632 6.41316C60.1479 6.66201 33.1092 8.90173 6.55708 8.13603C7.16715 8.07222 7.76538 8.00839 8.31135 7.95096C13.0079 7.4724 17.8065 7.23633 22.5328 6.85348C37.5755 5.64112 52.7108 4.87543 67.8628 4.14163C86.6632 3.22279 106.283 2.43157 126.056 2.06148C133.13 2.11891 140.18 2.17636 147.231 2.24655C162.482 2.39969 177.805 2.84635 193.021 3.44614C197.603 3.63119 202.184 3.8226 206.765 3.9885C208.285 4.04593 212.201 4.2118 212.747 4.19904C213.424 4.18628 213.554 3.88002 213.566 3.82898C213.602 3.71412 213.578 3.55459 213.246 3.4206C213.21 3.40145 212.997 3.3376 212.522 3.29932C184.855 1.04051 155.313 0.6641 126.08 1.20647C95.2445 0.970379 64.2902 0.86824 33.5329 0.759766C33.0926 0.759766 32.733 0.951218 32.7294 1.18731C32.727 1.4234 33.0819 1.61486 33.5222 1.62124C55.7932 1.69781 78.1769 1.77433 100.538 1.89557Z" fill="#EFC9C7"/>
</svg>
