<svg width="153" height="99" fill="none" xmlns="http://www.w3.org/2000/svg"><path fill-rule="evenodd" clip-rule="evenodd" d="M71.6136 83.0271c17.2662 9.3562 37.0144 16.2285 56.5934 14.8821 7.124-.4892 13.718-2.5433 20.488-4.5855.475-.1425.746-.6459.603-1.1232-.144-.4773-.648-.748-1.125-.6032-6.64 2.0019-13.104 4.0322-20.09 4.5119-19.301 1.3274-38.7568-5.5069-55.7617-14.7491l.1211-.273c1.3227-2.9613.5034-7.2831-1.6576-11.8188-3.0965-6.5018-8.8622-13.4881-14.0508-17.3469-2.3319-1.7335-4.5665-2.8353-6.4092-3.0657-1.4367-.1805-2.6692.1425-3.6214 1.0021-2.028 1.8333-1.9568 4.9607-.3491 8.5868 3.3601 7.5847 13.2292 17.5726 18.5817 20.776 1.6718.9997 3.3721 1.9828 5.0985 2.9398-.2185.5272-.4346 1.0425-.6673 1.534-.6673 1.3987-1.4866 2.6216-3.0657 3.4599-2.4626 1.3037-5.4142 1.5293-8.4348 1.1921-4.7137-.5296-9.5937-2.4459-13.1865-4.0915-20.009-9.1663-29.9184-25.0646-35.233-41.0248C4.083 27.1109 3.38 10.9157 1.7915 1.3624 1.7106.871 1.2452.5408.7536.6215c-.4915.0808-.824.5462-.7409 1.0377C1.611 11.2744 2.3351 27.574 7.7375 43.8002c5.4522 16.3852 15.6514 32.6849 36.1899 42.0957 3.7425 1.7145 8.829 3.6926 13.7374 4.2435 3.3982.3799 6.7108.076 9.4821-1.3916 2.4862-1.3179 3.4741-3.3744 4.4667-5.7206Zm-.8786-2.5408.0617-.1354c1.1565-2.5884.2494-6.3403-1.6409-10.306-2.9754-6.2478-8.5108-12.9657-13.4999-16.6749-1.7098-1.2729-3.3459-2.1871-4.785-2.5718-1.1873-.3158-2.2179-.2707-2.9564.399-.7006.6292-.9784 1.496-.9665 2.5052.0118 1.185.406 2.5457 1.0543 4.0108 3.2296 7.2879 12.7163 16.8815 17.8599 19.9591a185.2245 185.2245 0 0 0 4.8728 2.814Z" fill="#000"/><path fill-rule="evenodd" clip-rule="evenodd" d="M150.981 90.532c-.078.3871-.342.8739-.632 1.394-.688 1.2395-1.669 2.5598-2.106 3.201-.28.4132-.171.9736.24 1.2538a.9021.9021 0 0 0 1.254-.2398c.534-.786 1.838-2.548 2.538-4.0085.375-.7836.57-1.5079.527-2.0279-.071-.8858-.771-1.4391-2.161-1.4058-1.643.0403-4.694.8643-7.25-.1259-.463-.1805-.987.0522-1.165.5153a.9013.9013 0 0 0 .515 1.1684c2.436.9427 5.276.4891 7.188.2992.363-.0357.795-.0309 1.052-.0238Z" fill="#000"/></svg>