<svg width="236" height="475" viewBox="0 0 236 475" fill="none" xmlns="http://www.w3.org/2000/svg">
<g clip-path="url(#clip0_748_137)">
<path d="M85.9609 27.4962C85.9609 24.9173 87.0075 22.5787 88.6947 20.8861C90.3873 19.1989 92.7206 18.1523 95.3048 18.1523H140.689C145.847 18.1523 150.033 22.3331 150.033 27.4962C150.033 30.0751 148.987 32.4138 147.294 34.101C145.602 35.7936 143.268 36.8401 140.689 36.8401H95.3048C90.1417 36.8401 85.9609 32.6541 85.9609 27.4962Z" fill="#F4F0E3" stroke="#564629"/>
<path d="M195.958 0.265625H40.0488C19.2573 0.265625 2.40625 17.1167 2.40625 37.9082V436.225C2.40625 457.011 19.2573 473.867 40.0488 473.867H195.958C216.744 473.867 233.601 457.011 233.601 436.225V37.9082C233.601 17.1167 216.744 0.265625 195.958 0.265625ZM193.289 11.7453C209.211 11.7453 222.121 24.6505 222.121 40.5778V433.555C222.121 449.477 209.211 462.388 193.289 462.388H42.7185C26.7911 462.388 13.8859 449.477 13.8859 433.555V40.5778C13.8859 24.6505 26.7911 11.7453 42.7185 11.7453H193.289Z" fill="#F4F0E3" stroke="#564629"/>
<path d="M150.033 27.4962C150.033 30.0751 148.987 32.4138 147.294 34.101C145.602 35.7936 143.268 36.8401 140.689 36.8401H95.3048C90.1417 36.8401 85.9609 32.6541 85.9609 27.4962C85.9609 24.9173 87.0075 22.5787 88.6947 20.8861C90.3873 19.1989 92.7206 18.1523 95.3048 18.1523H140.689C145.847 18.1523 150.033 22.3331 150.033 27.4962Z" fill="#988868"/>
<path d="M195.418 1.60156H40.576C20.2277 1.60156 3.73438 18.0949 3.73438 38.4432V435.692C3.73438 456.035 20.2277 472.534 40.576 472.534H195.418C215.761 472.534 232.259 456.035 232.259 435.692V38.4432C232.259 18.0949 215.761 1.60156 195.418 1.60156ZM222.114 433.556C222.114 449.478 209.204 462.389 193.282 462.389H42.7118C26.7844 462.389 13.8792 449.478 13.8792 433.556V40.5789C13.8792 24.6516 26.7844 11.7464 42.7118 11.7464H193.282C209.204 11.7464 222.114 24.6516 222.114 40.5789V433.556Z" fill="#988868"/>
<path d="M150.033 27.4962C150.033 30.0751 148.987 32.4138 147.294 34.101C145.602 35.7936 143.268 36.8401 140.689 36.8401H95.3048C90.1417 36.8401 85.9609 32.6541 85.9609 27.4962C85.9609 24.9173 87.0075 22.5787 88.6947 20.8861C90.3873 19.1989 92.7206 18.1523 95.3048 18.1523H140.689C145.847 18.1523 150.033 22.3331 150.033 27.4962Z" fill="black"/>
<path d="M195.423 3.73828H40.5809C21.4126 3.73828 5.875 19.2758 5.875 38.4442V435.693C5.875 454.861 21.4126 470.399 40.5809 470.399H195.423C214.591 470.399 230.128 454.861 230.128 435.693V38.4442C230.128 19.2758 214.591 3.73828 195.423 3.73828ZM222.119 433.557C222.119 449.479 209.209 462.39 193.287 462.39H42.7166C26.7893 462.39 13.884 449.479 13.884 433.557V40.5799C13.884 24.6526 26.7893 11.7473 42.7166 11.7473H193.287C209.209 11.7473 222.119 24.6526 222.119 40.5799V433.557Z" fill="black"/>
<path d="M95.5781 3.73828H140.429C140.429 4.91828 139.473 5.87403 138.293 5.87403H97.7139C96.5339 5.87403 95.5781 4.91828 95.5781 3.73828Z" fill="url(#paint0_linear_748_137)"/>
<path d="M0.132812 91.838C0.132812 91.619 0.314351 91.4375 0.533265 91.4375H2.00159V108.79H0.533265C0.314351 108.79 0.132812 108.609 0.132812 108.39V91.838Z" fill="#E4DBC3" stroke="#CBBD9D" stroke-width="0.5"/>
<path d="M2.13819 92.3711H1.07031V107.855H2.13819V92.3711Z" fill="#E3D0AD"/>
<path d="M2.1355 92.3711H1.60156V107.855H2.1355V92.3711Z" fill="#A4916B"/>
<path d="M2.13819 107.855H1.07031V108.389H2.13819V107.855Z" fill="#54432A"/>
<path d="M2.13819 107.855H1.07031V108.389H2.13819V107.855Z" fill="#54432A"/>
<path d="M2.13819 107.855H1.07031V108.389H2.13819V107.855Z" fill="#54432A"/>
<path d="M2.13819 92.3711H1.07031V92.905H2.13819V92.3711Z" fill="#54432A"/>
<path d="M2.13819 92.3711H1.07031V92.905H2.13819V92.3711Z" fill="#54432A"/>
<path d="M2.13819 92.3711H1.07031V92.905H2.13819V92.3711Z" fill="#54432A"/>
<path d="M0.132812 125.475C0.132812 125.256 0.314351 125.074 0.533265 125.074H2.00159V159.513H0.533265C0.314351 159.513 0.132812 159.332 0.132812 159.113V125.475Z" fill="#E4DBC3" stroke="#CBBD9D" stroke-width="0.5"/>
<path d="M2.13819 127.078H1.07031V157.513H2.13819V127.078Z" fill="#E3D0AD"/>
<path d="M2.1355 127.078H1.60156V157.513H2.1355V127.078Z" fill="#A4916B"/>
<path d="M2.13819 156.977H1.07031V158.044H2.13819V156.977Z" fill="#54432A"/>
<path d="M2.13819 156.977H1.07031V158.044H2.13819V156.977Z" fill="#54432A"/>
<path d="M2.13819 156.977H1.07031V158.044H2.13819V156.977Z" fill="#54432A"/>
<path d="M2.13819 127.078H1.07031V128.146H2.13819V127.078Z" fill="#54432A"/>
<path d="M2.13819 127.078H1.07031V128.146H2.13819V127.078Z" fill="#54432A"/>
<path d="M2.13819 127.078H1.07031V128.146H2.13819V127.078Z" fill="#54432A"/>
<path d="M0.132812 170.861C0.132812 170.642 0.314351 170.461 0.533265 170.461H2.00159V204.9H0.533265C0.314351 204.9 0.132812 204.718 0.132812 204.499V170.861Z" fill="#E4DBC3" stroke="#CBBD9D" stroke-width="0.5"/>
<path d="M2.13819 172.461H1.07031V202.895H2.13819V172.461Z" fill="#E3D0AD"/>
<path d="M2.1355 172.461H1.60156V202.895H2.1355V172.461Z" fill="#A4916B"/>
<path d="M2.13819 202.363H1.07031V203.431H2.13819V202.363Z" fill="#54432A"/>
<path d="M2.13819 202.363H1.07031V203.431H2.13819V202.363Z" fill="#54432A"/>
<path d="M2.13819 202.363H1.07031V203.431H2.13819V202.363Z" fill="#54432A"/>
<path d="M2.13819 172.461H1.07031V173.529H2.13819V172.461Z" fill="#54432A"/>
<path d="M2.13819 172.461H1.07031V173.529H2.13819V172.461Z" fill="#54432A"/>
<path d="M2.13819 172.461H1.07031V173.529H2.13819V172.461Z" fill="#54432A"/>
<path d="M235.869 202.363C235.869 202.582 235.687 202.763 235.468 202.763H234V149.637H235.468C235.687 149.637 235.869 149.818 235.869 150.037V202.363Z" fill="#E4DBC3" stroke="#CBBD9D" stroke-width="0.5"/>
<path d="M234.935 152.793H233.867V199.614H234.935V152.793Z" fill="#E3D0AD"/>
<path d="M234.401 152.793H233.867V199.614H234.401V152.793Z" fill="#A4916B"/>
<path d="M234.935 151.965H233.867V153.609H234.935V151.965Z" fill="#54432A"/>
<path d="M234.935 151.965H233.867V153.609H234.935V151.965Z" fill="#54432A"/>
<path d="M234.935 151.965H233.867V153.609H234.935V151.965Z" fill="#54432A"/>
<path d="M234.935 197.969H233.867V199.613H234.935V197.969Z" fill="#54432A"/>
<path d="M234.935 197.969H233.867V199.613H234.935V197.969Z" fill="#54432A"/>
<path d="M234.935 197.969H233.867V199.613H234.935V197.969Z" fill="#54432A"/>
<path d="M5.87037 50.1914H2.13281V53.395H5.87037V50.1914Z" fill="#847356"/>
<path d="M3.37688 50.1914H2.13281V53.395H3.37688V50.1914Z" fill="#A6967A"/>
<path d="M5.87037 420.742H2.13281V423.946H5.87037V420.742Z" fill="#847356"/>
<path d="M3.37688 420.742H2.13281V423.946H3.37688V420.742Z" fill="#A6967A"/>
<path d="M233.863 420.742H230.125V423.946H233.863V420.742Z" fill="#847356"/>
<path d="M233.861 420.742H232.617V423.946H233.861V420.742Z" fill="#A6967A"/>
<path d="M233.863 50.1914H230.125V53.395H233.863V50.1914Z" fill="#847356"/>
<path d="M233.861 50.1914H232.617V53.395H233.861V50.1914Z" fill="#A6967A"/>
<path d="M183.672 0H180.469V3.73756H183.672V0Z" fill="#847356"/>
<path d="M183.672 0H180.469V1.24407H183.672V0Z" fill="#A6967A"/>
<path d="M55.5317 470.398H52.3281V474.136H55.5317V470.398Z" fill="#847356"/>
<path d="M55.5317 472.891H52.3281V474.135H55.5317V472.891Z" fill="#A6967A"/>
<path d="M150.033 27.4962C150.033 30.0751 148.987 32.4138 147.294 34.101C145.602 35.7936 143.268 36.8401 140.689 36.8401H95.3048C90.1417 36.8401 85.9609 32.6541 85.9609 27.4962C85.9609 24.9173 87.0075 22.5787 88.6947 20.8861C90.3873 19.1989 92.7206 18.1523 95.3048 18.1523H140.689C145.847 18.1523 150.033 22.3331 150.033 27.4962Z" fill="#FDEE8B"/>
<path d="M150.033 27.4962C150.033 30.0751 148.987 32.4138 147.294 34.101C145.602 35.7936 143.268 36.8401 140.689 36.8401H95.3048C90.1417 36.8401 85.9609 32.6541 85.9609 27.4962C85.9609 24.9173 87.0075 22.5787 88.6947 20.8861C90.3873 19.1989 92.7206 18.1523 95.3048 18.1523H140.689C145.847 18.1523 150.033 22.3331 150.033 27.4962Z" fill="#040504"/>
<path d="M140.689 30.9685C142.606 30.9685 144.16 29.4147 144.16 27.4979C144.16 25.5812 142.606 24.0273 140.689 24.0273C138.773 24.0273 137.219 25.5812 137.219 27.4979C137.219 29.4147 138.773 30.9685 140.689 30.9685Z" fill="url(#paint1_radial_748_137)"/>
<path d="M140.692 29.8992C142.019 29.8992 143.094 28.8234 143.094 27.4965C143.094 26.1695 142.019 25.0938 140.692 25.0938C139.365 25.0938 138.289 26.1695 138.289 27.4965C138.289 28.8234 139.365 29.8992 140.692 29.8992Z" fill="url(#paint2_radial_748_137)"/>
<path d="M140.692 26.6968C141.134 26.6968 141.492 26.4577 141.492 26.1628C141.492 25.868 141.134 25.6289 140.692 25.6289C140.249 25.6289 139.891 25.868 139.891 26.1628C139.891 26.4577 140.249 26.6968 140.692 26.6968Z" fill="url(#paint3_radial_748_137)"/>
<path d="M140.692 29.3674C141.134 29.3674 141.492 29.0089 141.492 28.5665C141.492 28.1242 141.134 27.7656 140.692 27.7656C140.249 27.7656 139.891 28.1242 139.891 28.5665C139.891 29.0089 140.249 29.3674 140.692 29.3674Z" fill="url(#paint4_radial_748_137)"/>
<rect x="80" y="451" width="75" height="3" rx="1.5" fill="black"/>
</g>
<defs>
<linearGradient id="paint0_linear_748_137" x1="118.003" y1="3.73828" x2="118.003" y2="5.87403" gradientUnits="userSpaceOnUse">
<stop stop-color="#0C0B0A"/>
<stop offset="1" stop-color="#2D2D2D"/>
</linearGradient>
<radialGradient id="paint1_radial_748_137" cx="0" cy="0" r="1" gradientUnits="userSpaceOnUse" gradientTransform="translate(142.626 27.4873) rotate(90) scale(3.47059 7.76344)">
<stop stop-color="#121625" stop-opacity="0"/>
<stop offset="1" stop-color="#121625"/>
</radialGradient>
<radialGradient id="paint2_radial_748_137" cx="0" cy="0" r="1" gradientUnits="userSpaceOnUse" gradientTransform="translate(140.678 27.5071) rotate(90) scale(2.40271)">
<stop stop-color="#0B0A11"/>
<stop offset="1" stop-color="#161845"/>
</radialGradient>
<radialGradient id="paint3_radial_748_137" cx="0" cy="0" r="1" gradientUnits="userSpaceOnUse" gradientTransform="translate(140.692 26.1628) rotate(90) scale(0.533937 0.800905)">
<stop stop-color="#5164A8"/>
<stop offset="1" stop-color="#272360"/>
</radialGradient>
<radialGradient id="paint4_radial_748_137" cx="0" cy="0" r="1" gradientUnits="userSpaceOnUse" gradientTransform="translate(140.692 28.5665) rotate(90) scale(0.800905)">
<stop stop-color="#245A66"/>
<stop offset="0.62" stop-color="#0D3149"/>
<stop offset="1" stop-color="#051935"/>
</radialGradient>
<clipPath id="clip0_748_137">
<rect width="236" height="474.136" fill="white"/>
</clipPath>
</defs>
</svg>
